<?xml version="1.0" standalone="no"?>
<!DOCTYPE svg PUBLIC "-//W3C//DTD SVG 20010904//EN"
 "http://www.w3.org/TR/2001/REC-SVG-20010904/DTD/svg10.dtd">
<svg version="1.0" xmlns="http://www.w3.org/2000/svg"
 width="1200.000000pt" height="1200.000000pt" viewBox="0 0 1200.000000 1200.000000"
 preserveAspectRatio="xMidYMid meet">

<g transform="translate(0.000000,1200.000000) scale(0.100000,-0.100000)"
fill="#000000" stroke="none">
<path d="M6924 7853 c-50 -25 -51 -27 -170 -418 -66 -218 -92 -303 -144 -470
-29 -93 -63 -204 -75 -245 -12 -41 -43 -140 -68 -220 -24 -80 -66 -215 -92
-300 -25 -85 -57 -189 -70 -230 -13 -41 -42 -136 -65 -210 -23 -74 -54 -175
-70 -225 -15 -49 -41 -135 -58 -190 -67 -221 -145 -473 -163 -529 -10 -33 -19
-66 -19 -75 0 -55 -38 54 -165 479 -26 85 -59 196 -75 245 -16 50 -45 144 -65
210 -20 66 -49 161 -65 210 -15 50 -49 160 -75 245 -26 85 -57 189 -70 230
-13 41 -37 121 -54 177 -24 80 -38 107 -61 127 -55 46 -135 46 -190 0 -29 -25
-32 -33 -90 -224 -28 -94 -77 -250 -145 -470 -13 -41 -35 -114 -50 -162 l-27
-88 -1597 -2 -1596 -3 -33 -23 c-84 -60 -82 -182 5 -239 26 -17 106 -18 1676
-21 1127 -1 1661 1 1688 8 77 21 79 26 204 440 25 85 48 161 51 169 8 25 20 0
54 -114 52 -178 95 -319 149 -495 28 -91 72 -232 97 -315 47 -152 73 -237 124
-400 16 -49 49 -160 75 -245 79 -264 97 -314 119 -338 61 -68 150 -68 212 0
13 13 41 87 69 178 25 85 59 196 75 245 15 50 44 142 63 205 19 63 51 167 71
230 37 121 94 306 153 500 19 63 48 156 63 205 16 50 43 137 60 195 18 58 45
146 60 195 16 50 49 160 75 245 25 85 55 180 65 210 11 30 30 93 44 140 13 47
49 164 79 262 30 97 61 199 68 227 7 28 16 51 20 51 7 0 59 -162 234 -735 42
-137 87 -284 100 -325 13 -41 44 -145 70 -230 76 -250 123 -398 135 -420 6
-12 26 -30 43 -40 31 -19 63 -20 1432 -20 1371 0 1401 0 1432 20 90 54 82 206
-12 246 -29 12 -228 14 -1353 14 l-1319 0 -32 108 c-18 59 -43 141 -56 182
-13 41 -40 129 -60 195 -20 66 -49 161 -64 210 -16 50 -50 160 -76 245 -26 85
-85 277 -130 425 -112 360 -152 493 -182 595 -13 47 -31 95 -39 108 -37 57
-125 78 -190 45z"/>
</g>
</svg>
